<mxfile host="app.diagrams.net" modified="2023-11-18T01:07:30.584Z" agent="Mozilla/5.0 (Windows NT 10.0; Win64; x64) AppleWebKit/537.36 (KHTML, like Gecko) Chrome/119.0.0.0 Safari/537.36" etag="J6NxQleJuBqjLoDDchPX" version="21.7.4" type="github">
  <diagram name="Page-1" id="BiohOgNj7tIeg-JSibBV">
    <mxGraphModel dx="1050" dy="1665" grid="1" gridSize="10" guides="1" tooltips="1" connect="1" arrows="1" fold="1" page="1" pageScale="1" pageWidth="850" pageHeight="1100" math="0" shadow="0">
      <root>
        <mxCell id="0" />
        <mxCell id="1" parent="0" />
        <mxCell id="VF4PzT3d_DnpgDc82FjK-1" value="Service Transaction Type Update" style="swimlane;whiteSpace=wrap;html=1;" vertex="1" parent="1">
          <mxGeometry x="30" y="-1080" width="770" height="500" as="geometry" />
        </mxCell>
        <mxCell id="VF4PzT3d_DnpgDc82FjK-2" value="" style="rounded=0;whiteSpace=wrap;html=1;" vertex="1" parent="VF4PzT3d_DnpgDc82FjK-1">
          <mxGeometry x="82" y="40" width="180" height="30" as="geometry" />
        </mxCell>
        <mxCell id="VF4PzT3d_DnpgDc82FjK-3" value="&lt;font style=&quot;font-size: 16px;&quot;&gt;Refno&lt;/font&gt;" style="text;strokeColor=none;fillColor=none;html=1;fontSize=24;fontStyle=1;verticalAlign=middle;align=center;" vertex="1" parent="VF4PzT3d_DnpgDc82FjK-1">
          <mxGeometry y="30" width="100" height="40" as="geometry" />
        </mxCell>
        <mxCell id="VF4PzT3d_DnpgDc82FjK-4" style="edgeStyle=orthogonalEdgeStyle;rounded=0;orthogonalLoop=1;jettySize=auto;html=1;exitX=0.25;exitY=1;exitDx=0;exitDy=0;entryX=0.116;entryY=1.153;entryDx=0;entryDy=0;entryPerimeter=0;" edge="1" parent="VF4PzT3d_DnpgDc82FjK-1" source="VF4PzT3d_DnpgDc82FjK-2" target="VF4PzT3d_DnpgDc82FjK-2">
          <mxGeometry relative="1" as="geometry" />
        </mxCell>
      </root>
    </mxGraphModel>
  </diagram>
</mxfile>
